name C:\Users\r0593348\3dpredictsim\Results\MidTarsalJoint\Fal_s1_bCst_PF_Natali2010_ls150_MT_k500_d020_MTP_T5_ig21.mot
datacolumns 128
datarows 4
range 0.56171248 0.59541522
endheader
time	pelvis_tilt	pelvis_list	pelvis_rotation	pelvis_tx	pelvis_ty	pelvis_tz	hip_flexion_l	hip_adduction_l	hip_rotation_l	hip_flexion_r	hip_adduction_r	hip_rotation_r	knee_angle_l	knee_angle_r	ankle_angle_l	ankle_angle_r	subtalar_angle_l	subtalar_angle_r	mtj_angle_l	mtj_angle_r	mtp_angle_l	mtp_angle_r	lumbar_extension	lumbar_bending	lumbar_rotation	arm_flex_l	arm_add_l	arm_rot_l	arm_flex_r	arm_add_r	arm_rot_r	elbow_flex_l	elbow_flex_r	pro_sup_l	pro_sup_r	glut_med1_l/activation	glut_med2_l/activation	glut_med3_l/activation	glut_min1_l/activation	glut_min2_l/activation	glut_min3_l/activation	semimem_l/activation	semiten_l/activation	bifemlh_l/activation	bifemsh_l/activation	sar_l/activation	add_long_l/activation	add_brev_l/activation	add_mag1_l/activation	add_mag2_l/activation	add_mag3_l/activation	tfl_l/activation	pect_l/activation	grac_l/activation	glut_max1_l/activation	glut_max2_l/activation	glut_max3_l/activation	iliacus_l/activation	psoas_l/activation	quad_fem_l/activation	gem_l/activation	peri_l/activation	rect_fem_l/activation	vas_med_l/activation	vas_int_l/activation	vas_lat_l/activation	med_gas_l/activation	lat_gas_l/activation	soleus_l/activation	tib_post_l/activation	flex_dig_l/activation	flex_hal_l/activation	tib_ant_l/activation	per_brev_l/activation	per_long_l/activation	per_tert_l/activation	ext_dig_l/activation	ext_hal_l/activation	ercspn_l/activation	intobl_l/activation	extobl_l/activation	glut_med1_r/activation	glut_med2_r/activation	glut_med3_r/activation	glut_min1_r/activation	glut_min2_r/activation	glut_min3_r/activation	semimem_r/activation	semiten_r/activation	bifemlh_r/activation	bifemsh_r/activation	sar_r/activation	add_long_r/activation	add_brev_r/activation	add_mag1_r/activation	add_mag2_r/activation	add_mag3_r/activation	tfl_r/activation	pect_r/activation	grac_r/activation	glut_max1_r/activation	glut_max2_r/activation	glut_max3_r/activation	iliacus_r/activation	psoas_r/activation	quad_fem_r/activation	gem_r/activation	peri_r/activation	rect_fem_r/activation	vas_med_r/activation	vas_int_r/activation	vas_lat_r/activation	med_gas_r/activation	lat_gas_r/activation	soleus_r/activation	tib_post_r/activation	flex_dig_r/activation	flex_hal_r/activation	tib_ant_r/activation	per_brev_r/activation	per_long_r/activation	per_tert_r/activation	ext_dig_r/activation	ext_hal_r/activation	ercspn_r/activation	intobl_r/activation	extobl_r/activation	
          0.56171248	         -2.93017646	          2.11429227	         -5.17643724	          0.70214060	          0.91909406	          0.00160116	         29.39040366	          3.46957029	         -2.17379636	        -17.11598115	         -1.10345391	          6.38258572	        -11.88109661	         -7.38523777	          5.69810102	         -1.18567549	         -4.61632489	          8.35480106	         -0.01480021	          3.09278908	         -0.87123385	         15.09902148	         -2.01724171	         -0.29241175	          2.02072500	         -3.94365782	        -13.45068228	          9.29808022	          5.52083882	        -13.45709105	         17.83833847	         14.71621456	         31.70231668	         86.51662706	         86.51662706	          0.05936148	          0.05936158	          0.05000020	          0.05936190	          0.05936185	          0.05000933	          0.11323578	          0.05936153	          0.22016026	          0.05000029	          0.05000046	          0.13401089	          0.30390711	          0.13250070	          0.14684454	          0.10721378	          0.05000015	          0.08364384	          0.09251674	          0.05000052	          0.11158103	          0.15444213	          0.05084082	          0.05000028	          0.16566476	          0.25908779	          0.13362133	          0.05535083	          0.13716105	          0.13499548	          0.12143305	          0.05000131	          0.05000032	          0.05285684	          0.05000002	          0.05000042	          0.05000022	          0.54676339	          0.26231546	          0.16788937	          0.25701193	          0.47053771	          0.22566497	          0.05936189	          0.11286101	          0.10237084	          0.26054424	          0.09934616	          0.07455749	          0.29290622	          0.19479736	          0.10935811	          0.05000103	          0.05000028	          0.05000018	          0.06009417	          0.10359359	          0.09491946	          0.05000479	          0.05000146	          0.05000238	          0.05000078	          0.30402056	          0.08215089	          0.05000291	          0.05000446	          0.05000304	          0.05000252	          0.40712627	          0.62898177	          0.05000158	          0.05000078	          0.05431622	          0.23431822	          0.05000988	          0.05000516	          0.05000397	          0.28860085	          0.39261106	          0.32187187	          0.28237156	          0.27582654	          0.36382866	          0.05000005	          0.05727679	          0.12016879	          0.05000031	          0.05000008	          0.05000030	          0.05000003	          0.05000011	          0.05000012	
          0.57294673	         -2.92721573	          2.19793035	         -5.46572753	          0.71905398	          0.91812031	          0.00140922	         28.74402122	          3.79295006	         -1.93656557	        -17.02117574	         -1.39822141	          6.18327237	        -12.05039008	         -9.23610435	          5.06641392	         -1.79600261	         -4.99096182	          9.28059671	          0.00156995	          2.52837286	         -0.86550711	         16.52940373	         -1.81866140	         -0.48823177	          2.08594872	         -4.83275881	        -13.45029812	          9.03189320	          5.22338334	        -13.46738153	         18.07163485	         14.37031075	         32.91249916	         86.51662706	         86.51662706	          0.05000002	          0.05000007	          0.10767014	          0.05000007	          0.05000008	          0.05000013	          0.09537770	          0.05000030	          0.18543919	          0.05000020	          0.05000642	          0.11287651	          0.25597922	          0.30511985	          0.20978062	          0.12381318	          0.05000078	          0.07046142	          0.12390235	          0.05330079	          0.11070439	          0.13008573	          0.05000013	          0.05936123	          0.40592462	          0.21822749	          0.11254816	          0.05936300	          0.14694964	          0.14765649	          0.12685087	          0.05000044	          0.05000531	          0.05000005	          0.05944846	          0.05002058	          0.05936292	          0.46202051	          0.27053767	          0.20152194	          0.21647913	          0.43527122	          0.19007578	          0.05000003	          0.09506187	          0.08622610	          0.21945427	          0.08367846	          0.06279918	          0.24671265	          0.16407623	          0.09211147	          0.05000330	          0.05000080	          0.05000100	          0.05061691	          0.08725628	          0.18178859	          0.05077495	          0.05937463	          0.05934680	          0.05936217	          0.25607410	          0.08630256	          0.05001531	          0.05000341	          0.05000239	          0.05000292	          0.34291910	          0.58361552	          0.05000100	          0.05936118	          0.05936188	          0.19736441	          0.12111036	          0.15674060	          0.14723997	          0.24308604	          0.33069299	          0.27207713	          0.24545211	          0.23232709	          0.30645098	          0.05000005	          0.05000015	          0.13304608	          0.05000016	          0.05000005	          0.05000023	          0.05534363	          0.05960948	          0.05936129	
          0.58418098	         -2.92062740	          2.28496885	         -5.72524510	          0.73624582	          0.91721042	          0.00123068	         27.98115563	          4.03962897	         -1.67686460	        -16.85739578	         -1.69291041	          5.97618532	        -12.53775540	        -11.19064814	          4.55299178	         -2.55654757	         -5.38387408	         10.16276169	         -0.13911235	          1.86468807	         -0.90189176	         17.95752611	         -1.60123665	         -0.69578570	          2.14010674	         -5.75089456	        -13.45627362	          8.80776434	          4.84765049	        -13.47588359	         18.22630491	         14.08603068	         34.11483168	         86.51662706	         86.51662706	          0.23102863	          0.23399580	          0.29651306	          0.34108852	          0.21825495	          0.20392062	          0.09044109	          0.05190509	          0.15621526	          0.08364319	          0.05000252	          0.09507499	          0.21560921	          0.25699997	          0.17669663	          0.11758731	          0.05000063	          0.05935927	          0.10436336	          0.05000131	          0.13644009	          0.10957035	          0.05492521	          0.05000080	          0.34190692	          0.18381132	          0.21784778	          0.05000099	          0.12377452	          0.12436991	          0.10684549	          0.05000124	          0.05000617	          0.05184134	          0.05007299	          0.05000055	          0.05000132	          0.54995008	          0.33368028	          0.17278124	          0.33281030	          0.50815822	          0.18393857	          0.06020478	          0.11772284	          0.07262751	          0.31826490	          0.07048168	          0.05289528	          0.30902117	          0.13820013	          0.07758477	          0.05000192	          0.05000029	          0.05000024	          0.05000024	          0.07349559	          0.15311917	          0.05000409	          0.05001114	          0.05000184	          0.05000123	          0.22746726	          0.07269414	          0.05000132	          0.05000366	          0.05000225	          0.05000151	          0.28883802	          0.55278470	          0.05000038	          0.05000106	          0.05000038	          0.16623843	          0.10201073	          0.13202176	          0.12401938	          0.20474930	          0.27853990	          0.22916825	          0.20674232	          0.19568735	          0.25812125	          0.05000002	          0.09251225	          0.15184155	          0.05000016	          0.05000006	          0.05000017	          0.05000032	          0.05020856	          0.05000007	
          0.59541522	         -2.91266724	          2.36536354	         -5.94979122	          0.75350084	          0.91638871	          0.00103075	         27.17237723	          4.26831285	         -1.41757719	        -16.58968056	         -1.97687406	          5.77663442	        -12.99083080	        -13.28540369	          4.07435253	         -3.49300964	         -5.78137361	         11.00354235	         -0.11499010	          1.16767257	         -0.87380987	         19.28803023	         -1.38831162	         -0.90503960	          2.18594634	         -6.65061525	        -13.46295378	          8.62785536	          4.42947609	        -13.48990033	         18.32782643	         13.84048189	         35.29027684	         86.51662706	         86.51662706	          0.32384412	          0.32616373	          0.35667264	          0.28729625	          0.18383532	          0.18832127	          0.07828179	          0.08666297	          0.13157898	          0.07045282	          0.05000082	          0.08008091	          0.18160589	          0.21646932	          0.16353866	          0.16015003	          0.05000038	          0.05000188	          0.09035007	          0.20496135	          0.18544489	          0.15613831	          0.05000010	          0.05000012	          0.28798538	          0.15482281	          0.18349182	          0.05000007	          0.12906226	          0.14919329	          0.10622838	          0.05000003	          0.05000007	          0.05000000	          0.05000002	          0.05000014	          0.05000013	          0.60524684	          0.29681731	          0.16300583	          0.56427599	          0.54344350	          0.29085236	          0.08106453	          0.09915698	          0.06117355	          0.30266688	          0.05936616	          0.05000015	          0.26028978	          0.11640489	          0.06534905	          0.05000329	          0.05000035	          0.05000030	          0.05000026	          0.06190501	          0.15628791	          0.05000270	          0.05000258	          0.05000379	          0.05000263	          0.19159484	          0.06123265	          0.05000159	          0.05000310	          0.05000202	          0.05000153	          0.24328586	          0.50691819	          0.05000032	          0.05000111	          0.05000026	          0.14002125	          0.13493060	          0.11375722	          0.11793565	          0.17245859	          0.23461179	          0.19302646	          0.17413735	          0.16482593	          0.21741344	          0.05000983	          0.09332499	          0.15520141	          0.05000066	          0.11290253	          0.05000108	          0.07760158	          0.05000002	          0.05000005	
